<?xml version="1.0" encoding="UTF-8" standalone="no"?>
<svg
   data-name="Layer 1"
   version="1.1"
   viewBox="0 0 42 20"
   xml:space="preserve"
   id="svg5"
   xmlns="http://www.w3.org/2000/svg"
   xmlns:svg="http://www.w3.org/2000/svg"><defs
     id="defs3"><style
       id="style1">
      .cls-1 {
        fill: none;
        stroke: #caccd4;
        stroke-miterlimit: 10;
        stroke-width: 2px;
      }
    </style><style
       id="style2">
      .cls-1 {
        fill: none;
        stroke: #caccd4;
        stroke-miterlimit: 10;
        stroke-width: 2px;
      }
    </style><style
       id="style3">
      .cls-1 {
        stroke-width: .5px;
      }

      .cls-1, .cls-2 {
        fill: none;
        stroke: #caccd4;
        stroke-miterlimit: 10;
      }

      .cls-2 {
        stroke-width: 2px;
      }

      .cls-3 {
        fill: #caccd4;
        stroke-width: 0px;
      }
    </style></defs><polygon
     class="cls-1"
     points="20.39 8.93 23.49 4 24.81 2 21.79 4 11.5 11.06 18.65 11.06 14.83 16 13.28 18 16.42 16 27.5 8.93"
     fill="none"
     stroke="#caccd4"
     stroke-miterlimit="10"
     stroke-width=".5px"
     id="polygon5" /><polygon
     class="cls-3"
     points="4,16 4,4 21.79,4 11.5,11.06 18.65,11.06 14.83,16 "
     stroke-width="0px"
     id="polygon3"
     style="fill:#caccd4;stroke-width:0px" /><polygon
     class="cls-3"
     points="34,4 34,16 16.42,16 27.5,8.93 20.39,8.93 23.49,4 "
     stroke-width="0px"
     id="polygon4"
     style="fill:#caccd4;stroke-width:0px" /><path
     d="M 2,0 C 0.9093,0 0,0.9093 0,2 v 16 c 0,1.0907 0.9093,2 2,2 h 34 c 1.0907,0 2,-0.9093 2,-2 v -4 h 2 c 1.0907,0 2,-0.9093 2,-2 V 8 C 42,6.9093 41.0907,6 40,6 H 38 V 2 C 38,0.9093 37.0907,0 36,0 Z M 2,2 H 36 V 18 H 2 Z m 36,6 h 2 v 4 h -2 z"
     stop-color="#000000"
     stroke-miterlimit="10"
     id="path4"
     style="fill:#caccd4;fill-opacity:1" /></svg>
