<?xml version="1.0" encoding="UTF-8" standalone="no"?>
<svg
   data-name="Layer 1"
   version="1.1"
   viewBox="0 0 42 20"
   xml:space="preserve"
   id="svg2"
   xmlns="http://www.w3.org/2000/svg"
   xmlns:svg="http://www.w3.org/2000/svg"><defs
     id="defs1"><style
       id="style1">
      .cls-1 {
        fill: none;
        stroke: #caccd4;
        stroke-miterlimit: 10;
        stroke-width: 2px;
      }
    </style></defs><path
     class="cls-1"
     d="m38 7h2c0.554 0 1 0.446 1 1v4c0 0.554-0.446 1-1 1h-2c-0.554 0-1-0.446-1-1v-4c0-0.554 0.446-1 1-1zm-36-6h34c0.554 0 1 0.446 1 1v16c0 0.554-0.446 1-1 1h-34c-0.554 0-1-0.446-1-1v-16c0-0.554 0.446-1 1-1z"
     fill="none"
     stroke="#caccd4"
     stroke-miterlimit="10"
     stroke-width="2px"
     id="path2"
     style="stroke:#caccd4;stroke-opacity:1" /><path
     id="path1"
     style="paint-order:markers stroke fill;fill:#caccd4;fill-opacity:1"
     d="M 1.12891 2 L 1.12891 18 L 35.12891 18 L 35.12891 2 L 1.12891 2 z M 18.757816 4 L 24.757816 4 A 1 1 0 0 1 25.757816 5 L 25.757816 6 L 28.757816 6 A 1 1 0 0 1 29.757816 7 A 1 1 0 0 1 28.757816 8 L 25.757816 8 L 25.757816 12 L 28.757816 12 A 1 1 0 0 1 29.757816 13 A 1 1 0 0 1 28.757816 14 L 25.757816 14 L 25.757816 15 A 1 1 0 0 1 24.757816 16 L 18.757816 16 A 2.1042 2.1042 0 0 1 17.126957 15.224609 L 14.814457 12.386719 A 1.0521 1.0521 0 0 0 14.000004 12 L 7.5000038 12 A 1 1 0 0 1 6.5000038 11 L 6.5000038 9 A 1 1 0 0 1 7.5000038 8 L 14.000004 8 A 1.0521 1.0521 0 0 0 14.814457 7.6113281 L 17.126957 4.7753906 A 2.1042 2.1042 0 0 1 18.757816 4 z "
     transform="translate(0.87109)" /></svg>
