<?xml version="1.0" encoding="UTF-8"?>
<svg id="Layer_1" data-name="Layer 1" xmlns="http://www.w3.org/2000/svg" viewBox="0 0 33.54 22.5">
  <defs>
    <style>
      .cls-1 {
        fill: #caccd4;
        stroke-width: 0px;
      }
    </style>
  </defs>
  <path class="cls-1" d="M22.35,17.51l-5.58,4.99-5.58-4.99c1.36-1.54,3.36-2.51,5.58-2.51s4.22.97,5.58,2.51Z"/>
  <path class="cls-1" d="M27.94,12.51l-3.72,3.33c-1.83-2.05-4.49-3.34-7.45-3.34s-5.62,1.29-7.45,3.34l-3.72-3.33c2.74-3.08,6.73-5.01,11.17-5.01s8.43,1.93,11.17,5.01Z"/>
  <path class="cls-1" d="M33.54,7.5l-3.73,3.34c-3.2-3.59-7.86-5.84-13.04-5.84S6.93,7.25,3.73,10.84L0,7.5C4.12,2.9,10.1,0,16.77,0s12.65,2.9,16.77,7.5Z"/>
</svg>