<?xml version="1.0" encoding="UTF-8"?>
<svg id="Layer_1" data-name="Layer 1" xmlns="http://www.w3.org/2000/svg" viewBox="0 0 42 20">
  <defs>
    <style>
      .cls-1 {
        stroke-width: .5px;
      }

      .cls-1, .cls-2 {
        fill: none;
        stroke: #caccd4;
        stroke-miterlimit: 10;
      }

      .cls-2 {
        stroke-width: 2px;
      }

      .cls-3 {
        fill: #caccd4;
        stroke-width: 0px;
      }
    </style>
  </defs>
  <rect class="cls-2" x="1" y="1" width="36" height="18" rx="1" ry="1"/>
  <rect class="cls-2" x="37" y="7" width="4" height="6" rx="1" ry="1"/>
  <polygon class="cls-3" points="18.65 11.06 14.83 16 4 16 4 4 21.79 4 11.5 11.06 18.65 11.06"/>
  <polygon class="cls-3" points="34 4 34 16 16.42 16 27.5 8.93 20.39 8.93 23.49 4 34 4"/>
  <polygon class="cls-1" points="21.79 4 11.5 11.06 18.65 11.06 14.83 16 13.28 18 16.42 16 27.5 8.93 20.39 8.93 23.49 4 24.81 2 21.79 4"/>
</svg>